<svg version="1.2" xmlns="http://www.w3.org/2000/svg" viewBox="0 0 37 38" width="37" height="38">
	<title>Ellipse 5 copy 4 copia 2</title>
	<style>
		.s0 { fill: #b6b6b4;stroke: #b6b6b4;stroke-miterlimit:100;stroke-width: 1.8 } 
	</style>
	<path id="Ellipse 5 copy 4 copia 2" fill-rule="evenodd" class="s0" d="m18.4 1.5c9.6 0 17.5 7.9 17.5 17.5 0 9.7-7.9 17.5-17.5 17.5-9.7 0-17.5-7.8-17.5-17.5 0-9.6 7.8-17.5 17.5-17.5zm10.7 17.4c0-5.8-4.7-10.5-10.5-10.5-5.8 0-10.5 4.7-10.5 10.5h-2.1l3.5 4.2 3.5-4.2h-2.1c0-4.2 3.4-7.7 7.7-7.7 4.2 0 7.7 3.5 7.7 7.7 0 4.3-3.5 7.7-7.7 7.7v2.8c5.8 0 10.5-4.7 10.5-10.5z"/>
</svg>